<?xml version="1.0" standalone="no"?>
<!DOCTYPE svg PUBLIC "-//W3C//DTD SVG 20010904//EN"
 "http://www.w3.org/TR/2001/REC-SVG-20010904/DTD/svg10.dtd">
<svg version="1.0" xmlns="http://www.w3.org/2000/svg"
 width="512.000000pt" height="512.000000pt" viewBox="0 0 512.000000 512.000000"
 preserveAspectRatio="xMidYMid meet">
<metadata>
Created by potrace 1.11, written by Peter Selinger 2001-2013
</metadata>
<g transform="translate(0.000000,512.000000) scale(0.100000,-0.100000)"
fill="#000000" stroke="none">
<path d="M2478 5008 c-40 -56 -80 -112 -88 -124 -46 -68 -322 -444 -330 -449
-5 -3 -43 10 -85 30 -42 19 -78 35 -80 35 -2 0 -41 18 -87 39 -45 21 -126 58
-178 81 -52 23 -122 55 -155 70 -135 62 -186 83 -191 78 -7 -8 -11 -35 -19
-138 -4 -52 -8 -97 -10 -100 -1 -3 -6 -41 -9 -85 -4 -44 -9 -91 -11 -105 -2
-14 -6 -61 -10 -105 -4 -44 -8 -87 -10 -95 -5 -25 -18 -174 -17 -192 0 -10 -2
-18 -6 -19 -4 0 -16 -2 -27 -4 -11 -2 -51 -7 -90 -11 -38 -3 -81 -7 -95 -9
-14 -1 -56 -6 -95 -9 -38 -4 -86 -9 -105 -11 -19 -2 -64 -7 -100 -10 -36 -4
-76 -8 -90 -10 -14 -2 -59 -6 -100 -10 -87 -8 -133 -14 -139 -20 -2 -3 72
-172 164 -377 92 -205 169 -380 171 -388 2 -9 -23 -34 -69 -66 -224 -158 -607
-438 -607 -444 0 -7 313 -236 572 -419 59 -42 107 -79 108 -83 0 -4 -13 -36
-29 -70 -26 -59 -37 -83 -96 -213 -12 -27 -66 -148 -120 -268 -54 -119 -96
-220 -93 -223 7 -7 38 -11 123 -19 70 -6 136 -12 210 -20 22 -2 90 -9 150 -15
61 -6 126 -12 145 -15 43 -5 180 -18 198 -18 6 0 12 -3 13 -6 0 -3 2 -15 4
-26 2 -11 7 -51 10 -89 4 -38 8 -83 10 -100 3 -17 7 -65 11 -106 3 -41 8 -82
9 -91 2 -9 6 -52 10 -95 4 -43 8 -89 10 -101 2 -12 7 -57 10 -100 11 -125 12
-127 21 -130 5 -2 174 71 374 161 201 90 374 166 385 169 17 5 39 -20 132
-151 62 -86 164 -229 228 -317 64 -88 125 -173 134 -188 l18 -28 40 53 c22 29
134 183 248 343 115 160 210 292 211 294 3 3 86 -32 269 -115 28 -12 97 -43
155 -69 115 -52 147 -66 264 -119 44 -20 84 -35 89 -33 6 2 11 14 12 27 2 14
6 59 9 100 4 41 9 89 11 105 2 17 7 59 10 95 3 36 8 79 10 95 2 17 6 68 10
115 4 47 9 92 10 100 5 28 18 165 17 182 0 10 2 18 6 19 4 0 16 2 27 4 23 5
141 17 295 31 41 3 84 8 95 10 10 2 49 6 85 9 36 3 83 7 105 10 69 7 149 15
189 20 21 2 40 6 43 9 5 5 -31 90 -117 281 -15 33 -40 87 -55 120 -15 33 -44
98 -65 145 -21 47 -52 115 -69 153 -32 69 -37 87 -23 87 4 0 33 19 64 43 31
23 66 49 78 57 172 121 525 381 528 388 1 5 -68 60 -155 123 -224 160 -316
227 -328 236 -5 5 -50 37 -100 73 -49 35 -92 65 -94 67 -4 3 65 162 164 378
117 254 177 396 172 401 -3 3 -23 8 -44 10 -21 2 -85 8 -143 14 -58 6 -123 12
-145 15 -22 2 -60 6 -85 9 -25 3 -76 8 -115 11 -38 4 -81 8 -95 10 -14 2 -58
7 -97 10 -40 4 -81 8 -90 10 -10 2 -21 4 -25 4 -4 1 -6 9 -6 19 1 15 -2 49
-17 192 -3 25 -8 72 -11 105 -3 33 -7 74 -9 90 -2 17 -6 62 -10 100 -3 39 -8
84 -10 100 -2 17 -7 66 -10 110 -8 89 -12 115 -20 123 -2 3 -42 -12 -87 -33
-46 -20 -189 -84 -318 -142 -129 -58 -263 -118 -298 -134 -35 -16 -66 -29 -70
-28 -6 0 -333 450 -455 625 -21 30 -42 54 -46 54 -5 0 -42 -46 -83 -102z"/>
</g>
</svg>
